<svg xmlns="http://www.w3.org/2000/svg" viewBox="0 0 930.31 112.39"><defs><style>.cls-1{isolation:isolate;}.cls-10,.cls-11,.cls-12,.cls-13,.cls-14,.cls-15,.cls-16,.cls-17,.cls-18,.cls-19,.cls-2,.cls-20,.cls-21,.cls-22,.cls-23,.cls-24,.cls-25,.cls-26,.cls-27,.cls-28,.cls-29,.cls-3,.cls-30,.cls-4,.cls-5,.cls-6,.cls-7,.cls-8,.cls-9{fill:none;stroke:#f33c17;stroke-miterlimit:10;mix-blend-mode:multiply;}.cls-2{stroke-width:0.59px;opacity:0.2;}.cls-3{stroke-width:0.79px;opacity:0.23;}.cls-4{stroke-width:0.98px;opacity:0.26;}.cls-5{stroke-width:1.17px;opacity:0.29;}.cls-6{stroke-width:1.36px;opacity:0.31;}.cls-7{stroke-width:1.55px;opacity:0.34;}.cls-8{stroke-width:1.74px;opacity:0.37;}.cls-9{stroke-width:1.93px;opacity:0.4;}.cls-10{stroke-width:2.12px;opacity:0.43;}.cls-11{stroke-width:2.31px;opacity:0.46;}.cls-12{stroke-width:2.5px;opacity:0.49;}.cls-13{stroke-width:2.7px;opacity:0.51;}.cls-14{stroke-width:2.89px;opacity:0.54;}.cls-15{stroke-width:3.08px;opacity:0.57;}.cls-16{stroke-width:3.27px;opacity:0.6;}.cls-17{stroke-width:3.46px;opacity:0.63;}.cls-18{stroke-width:3.65px;opacity:0.66;}.cls-19{stroke-width:3.84px;opacity:0.69;}.cls-20{stroke-width:4.03px;opacity:0.71;}.cls-21{stroke-width:4.22px;opacity:0.74;}.cls-22{stroke-width:4.42px;opacity:0.77;}.cls-23{stroke-width:4.61px;opacity:0.8;}.cls-24{stroke-width:4.8px;opacity:0.83;}.cls-25{stroke-width:4.99px;opacity:0.86;}.cls-26{stroke-width:5.18px;opacity:0.89;}.cls-27{stroke-width:5.37px;opacity:0.91;}.cls-28{stroke-width:5.56px;opacity:0.94;}.cls-29{stroke-width:5.75px;opacity:0.97;}.cls-30{stroke-width:5.94px;}</style></defs><title>baller_1</title><g class="cls-1"><g id="Layer_2" data-name="Layer 2"><g id="Layer_1-2" data-name="Layer 1"><circle class="cls-2" cx="53.52" cy="56.19" r="53.22"/><circle class="cls-3" cx="82.83" cy="56.19" r="53.22"/><circle class="cls-4" cx="112.13" cy="56.19" r="53.22"/><circle class="cls-5" cx="141.44" cy="56.19" r="53.22"/><circle class="cls-6" cx="170.75" cy="56.19" r="53.22"/><circle class="cls-7" cx="200.05" cy="56.19" r="53.22"/><circle class="cls-8" cx="229.36" cy="56.19" r="53.22"/><circle class="cls-9" cx="258.67" cy="56.19" r="53.22"/><circle class="cls-10" cx="287.97" cy="56.19" r="53.22"/><circle class="cls-11" cx="317.28" cy="56.19" r="53.22"/><circle class="cls-12" cx="346.59" cy="56.19" r="53.22"/><circle class="cls-13" cx="375.9" cy="56.19" r="53.22"/><circle class="cls-14" cx="405.2" cy="56.19" r="53.22"/><circle class="cls-15" cx="434.51" cy="56.19" r="53.22"/><circle class="cls-16" cx="463.82" cy="56.19" r="53.22"/><circle class="cls-17" cx="493.12" cy="56.19" r="53.22"/><circle class="cls-18" cx="522.43" cy="56.19" r="53.22"/><circle class="cls-19" cx="551.74" cy="56.19" r="53.22"/><circle class="cls-20" cx="581.04" cy="56.19" r="53.22"/><circle class="cls-21" cx="610.35" cy="56.19" r="53.22"/><circle class="cls-22" cx="639.66" cy="56.19" r="53.22"/><circle class="cls-23" cx="668.97" cy="56.19" r="53.22"/><circle class="cls-24" cx="698.27" cy="56.19" r="53.22"/><circle class="cls-25" cx="727.58" cy="56.19" r="53.22"/><circle class="cls-26" cx="756.89" cy="56.19" r="53.22"/><circle class="cls-27" cx="786.19" cy="56.19" r="53.22"/><circle class="cls-28" cx="815.5" cy="56.19" r="53.22"/><circle class="cls-29" cx="844.81" cy="56.19" r="53.22"/><circle class="cls-30" cx="874.11" cy="56.19" r="53.22"/></g></g></g></svg>