<svg xmlns="http://www.w3.org/2000/svg" viewBox="0 0 622.63 303.04"><defs><style>.cls-1{fill:#fdfcee;}.cls-2{fill:#fdfcef;}</style></defs><title>title-vision</title><g id="Layer_2" data-name="Layer 2"><g id="Layer_1-2" data-name="Layer 1"><rect class="cls-1" y="285.5" width="622.63" height="17.54"/><rect class="cls-1" y="247.08" width="622.63" height="10.86"/><rect class="cls-1" y="209.08" width="622.63" height="6.68"/><rect class="cls-1" y="177.76" width="622.63" height="4.18"/><rect class="cls-1" y="158.39" width="622.63" height="2.51"/><rect class="cls-1" y="143.79" width="622.63" height="0.84"/><rect class="cls-1" y="135.44" width="622.63" height="0.84"/><path class="cls-2" d="M60.1,30.32H83.71l-30.37,84.1H30.16L0,30.32H24.69l17.51,62Z"/><path class="cls-2" d="M118.77,20.29H96.48V0h22.29Zm-22.29,10h22.29v84.1H96.48Z"/><path class="cls-2" d="M157.12,87.57c.46,3.91,1.47,6.68,3,8.33q4.11,4.39,15.2,4.4,6.51,0,10.35-1.93A6.47,6.47,0,0,0,186.43,87q-3.09-1.94-23-6.63-14.34-3.55-20.2-8.88t-5.86-15.12q0-11.66,9.16-20t25.79-8.37q15.77,0,25.7,6.29t11.41,21.72h-22a13,13,0,0,0-2.4-6.72q-3.63-4.47-12.38-4.47-7.18,0-10.25,2.24c-2,1.49-3,3.24-3,5.24a5.74,5.74,0,0,0,3.25,5.48q3.24,1.77,22.95,6.09,13.14,3.09,19.7,9.34A21.2,21.2,0,0,1,211.74,89a25.52,25.52,0,0,1-9.31,20.4q-9.31,7.9-28.8,7.91-19.86,0-29.34-8.37a27.22,27.22,0,0,1-9.47-21.33Z"/><path class="cls-2" d="M250.55,20.29h-22.3V0h22.3Zm-22.3,10h22.3v84.1h-22.3Z"/><path class="cls-2" d="M342,104.13q-10.65,13.14-32.33,13.14t-32.33-13.14Q266.67,91,266.67,72.48q0-18.18,10.65-31.52t32.33-13.34Q331.33,27.62,342,41t10.64,31.52Q352.62,91,342,104.13ZM324.38,92q5.17-6.87,5.17-19.5T324.38,53q-5.16-6.81-14.81-6.82T294.72,53q-5.21,6.82-5.21,19.45T294.72,92q5.2,6.85,14.85,6.85T324.38,92Z"/><path class="cls-2" d="M436.17,35.14q8.26,6.84,8.26,22.65v56.63H421.9V63.26c0-4.42-.58-7.81-1.76-10.18q-3.21-6.48-12.25-6.48-11.1,0-15.24,9.49A32.78,32.78,0,0,0,390.5,68.9v45.52h-22V30.48h21.29V42.74q4.23-6.48,8-9.33,6.76-5.1,17.13-5.1Q427.92,28.31,436.17,35.14Z"/><path class="cls-2" d="M466.2,68.59a7.15,7.15,0,0,1,5.33-2.14q4.32,0,6.33,2.87a6.42,6.42,0,0,1,1.19,3.24h-3.63a4.77,4.77,0,0,0-.89-1.88,3.93,3.93,0,0,0-5.92.46,7.82,7.82,0,0,0-1.12,4.51A6.85,6.85,0,0,0,468.67,80a3.71,3.71,0,0,0,3,1.46,3.4,3.4,0,0,0,2.84-1.25,5.56,5.56,0,0,0,.9-2H479a7.77,7.77,0,0,1-2.38,4.61,7,7,0,0,1-4.91,1.78,7.35,7.35,0,0,1-5.81-2.4,9.66,9.66,0,0,1-2.12-6.62C463.79,72.57,464.59,70.23,466.2,68.59Z"/><path class="cls-2" d="M488.79,71l.29,0v3.43c-.21,0-.4,0-.56,0l-.4,0a2.78,2.78,0,0,0-2.72,1.32A5.13,5.13,0,0,0,485,78v6.13h-3.38V71.3h3.2v2.24a7.09,7.09,0,0,1,1.36-1.76,3.69,3.69,0,0,1,2.44-.79Z"/><path class="cls-2" d="M499.4,71.56a5.2,5.2,0,0,1,2.22,1.9,6.39,6.39,0,0,1,1,2.65,17.3,17.3,0,0,1,.11,2.54h-9.34a3.08,3.08,0,0,0,1.34,2.71,3.42,3.42,0,0,0,1.85.48,2.8,2.8,0,0,0,1.86-.59,2.76,2.76,0,0,0,.69-.88h3.42a4.2,4.2,0,0,1-1.24,2.32,6.22,6.22,0,0,1-4.82,1.87A7,7,0,0,1,492,83q-2-1.58-2-5.13a6.93,6.93,0,0,1,1.77-5.11A6.16,6.16,0,0,1,496.39,71,7.29,7.29,0,0,1,499.4,71.56Zm-5,2.9a3.41,3.41,0,0,0-.9,2h5.78a2.8,2.8,0,0,0-.9-2,2.91,2.91,0,0,0-2-.69A2.65,2.65,0,0,0,494.39,74.46Z"/><path class="cls-2" d="M509.52,76.32a4.86,4.86,0,0,0,1.34-.29,1,1,0,0,0,.72-1A1.12,1.12,0,0,0,511,74a3.5,3.5,0,0,0-1.63-.3,2.1,2.1,0,0,0-1.7.59,2.41,2.41,0,0,0-.48,1.17H504a4.88,4.88,0,0,1,.94-2.76q1.33-1.69,4.58-1.7a8.13,8.13,0,0,1,3.76.84A3.2,3.2,0,0,1,514.91,75v5.88c0,.41,0,.91,0,1.49a1.81,1.81,0,0,0,.2.89,1.15,1.15,0,0,0,.49.39v.49H512a3.32,3.32,0,0,1-.22-.73,7.13,7.13,0,0,1-.09-.77,6.93,6.93,0,0,1-1.61,1.28,4.84,4.84,0,0,1-2.46.62,4.24,4.24,0,0,1-2.89-1,3.51,3.51,0,0,1-1.15-2.82,3.66,3.66,0,0,1,1.84-3.42,8.18,8.18,0,0,1,3-.83Zm2.05,1.57a3.56,3.56,0,0,1-.65.32,5.47,5.47,0,0,1-.9.23l-.76.14a5.08,5.08,0,0,0-1.54.46,1.53,1.53,0,0,0-.79,1.42,1.51,1.51,0,0,0,.48,1.25,1.85,1.85,0,0,0,1.18.38,3.46,3.46,0,0,0,2-.64,2.65,2.65,0,0,0,1-2.31Z"/><path class="cls-2" d="M516.53,73.81V71.42h1.78V67.84h3.32v3.58h2.08v2.39h-2.08v6.77a1.57,1.57,0,0,0,.2,1,2.34,2.34,0,0,0,1.23.19h.32l.33,0v2.51l-1.58.06c-1.59.06-2.67-.22-3.25-.82a2.46,2.46,0,0,1-.57-1.78V73.81Z"/><path class="cls-2" d="M529.31,69.77h-3.4V66.68h3.4Zm-3.4,1.53h3.4V84.12h-3.4Z"/><path class="cls-2" d="M542.9,72a4.23,4.23,0,0,1,1.26,3.45v8.63h-3.43v-7.8a3.56,3.56,0,0,0-.27-1.55,1.89,1.89,0,0,0-1.87-1,2.33,2.33,0,0,0-2.33,1.45,5.16,5.16,0,0,0-.32,2v6.94h-3.36V71.32h3.25v1.87a5.89,5.89,0,0,1,1.22-1.42,4.21,4.21,0,0,1,2.61-.78A4.89,4.89,0,0,1,542.9,72Z"/><path class="cls-2" d="M553.62,71.29a4.07,4.07,0,0,1,2,1.86V71.3h3.27V83.46a6.81,6.81,0,0,1-.84,3.75c-.95,1.44-2.79,2.16-5.5,2.16a7.57,7.57,0,0,1-4-1,3.59,3.59,0,0,1-1.71-2.89h3.64a1.53,1.53,0,0,0,.46.85,2.82,2.82,0,0,0,1.83.46,2.45,2.45,0,0,0,2.42-1.21,6.09,6.09,0,0,0,.4-2.61v-.83a3.74,3.74,0,0,1-3.64,2A4.93,4.93,0,0,1,548,82.45a7,7,0,0,1-1.48-4.7,7.92,7.92,0,0,1,1.42-4.81,4.69,4.69,0,0,1,4-2A4.31,4.31,0,0,1,553.62,71.29Zm1.14,9.19a4.11,4.11,0,0,0,.81-2.83,4.33,4.33,0,0,0-.76-2.77,2.51,2.51,0,0,0-2.06-1,2.42,2.42,0,0,0-2.42,1.66,5.81,5.81,0,0,0-.36,2.18,5,5,0,0,0,.38,2,2.43,2.43,0,0,0,2.43,1.62A2.56,2.56,0,0,0,554.76,80.48Z"/><path class="cls-2" d="M574.74,71.3h3.4l2,9.24,2-9.24h3.49l-3.71,12.82h-3.45l-2-9.34-2,9.34h-3.48l-3.6-12.82h3.6l2,9.2Z"/><path class="cls-2" d="M590.88,69.77h-3.4V66.68h3.4Zm-3.4,1.53h3.4V84.12h-3.4Z"/><path class="cls-2" d="M592.81,73.81V71.42h1.79V67.84h3.31v3.58H600v2.39h-2.09v6.77a1.57,1.57,0,0,0,.2,1,2.37,2.37,0,0,0,1.23.19h.32l.34,0v2.51l-1.59.06c-1.58.06-2.67-.22-3.25-.82a2.5,2.5,0,0,1-.56-1.78V73.81Z"/><path class="cls-2" d="M611.37,71.37A3.83,3.83,0,0,1,613,72.63a3.4,3.4,0,0,1,.65,1.48,20,20,0,0,1,.11,2.48v7.53h-3.42v-7.8a3.52,3.52,0,0,0-.35-1.68,1.76,1.76,0,0,0-1.73-.89,2.34,2.34,0,0,0-2,.89,4.05,4.05,0,0,0-.68,2.53v7h-3.36V66.84h3.36V73a4,4,0,0,1,1.68-1.56,4.75,4.75,0,0,1,2-.44A5.57,5.57,0,0,1,611.37,71.37Z"/><path class="cls-2" d="M476.18,103.92a6.58,6.58,0,0,1-4.35,1.27h-3.61v6.24h-3.6V94.09h7.45a6,6,0,0,1,4.1,1.34,5.23,5.23,0,0,1,1.53,4.15C477.7,101.63,477.2,103.08,476.18,103.92Zm-2.76-6.24a2.91,2.91,0,0,0-1.93-.58h-3.27v5.11h3.27a2.77,2.77,0,0,0,1.93-.63,2.55,2.55,0,0,0,.68-2A2.4,2.4,0,0,0,473.42,97.68Z"/><path class="cls-2" d="M491,109.86a7.05,7.05,0,0,1-9.86,0,8,8,0,0,1,0-9.63,7,7,0,0,1,9.86,0,7.93,7.93,0,0,1,0,9.63ZM488.35,108a6,6,0,0,0,0-5.94,3,3,0,0,0-4.52,0,5.91,5.91,0,0,0,0,5.94,3,3,0,0,0,4.52,0Z"/><path class="cls-2" d="M498.48,111.43h-3.35V94.09h3.35Z"/><path class="cls-2" d="M506.83,103.63a5.88,5.88,0,0,0,1.34-.29,1,1,0,0,0,.72-1,1.11,1.11,0,0,0-.55-1.08,3.49,3.49,0,0,0-1.63-.31,2.17,2.17,0,0,0-1.71.59,2.55,2.55,0,0,0-.47,1.18h-3.24a4.94,4.94,0,0,1,.95-2.77c.89-1.12,2.42-1.69,4.58-1.69a8.13,8.13,0,0,1,3.76.84,3.19,3.19,0,0,1,1.64,3.15v5.88c0,.41,0,.9,0,1.48a1.83,1.83,0,0,0,.21.9,1.32,1.32,0,0,0,.49.39v.49h-3.65a3.9,3.9,0,0,1-.21-.73,7.67,7.67,0,0,1-.09-.78,7,7,0,0,1-1.61,1.29,4.94,4.94,0,0,1-2.46.62,4.27,4.27,0,0,1-2.9-1,3.56,3.56,0,0,1-1.14-2.82,3.63,3.63,0,0,1,1.84-3.42,8.18,8.18,0,0,1,3-.83Zm2.05,1.56a3.06,3.06,0,0,1-.65.33,5.75,5.75,0,0,1-.9.23l-.76.14a4.81,4.81,0,0,0-1.54.46,1.53,1.53,0,0,0-.8,1.42,1.49,1.49,0,0,0,.49,1.24,1.8,1.8,0,0,0,1.17.39,3.54,3.54,0,0,0,2-.64,2.68,2.68,0,0,0,1-2.32Z"/><path class="cls-2" d="M522.27,98.31h.29v3.44l-.56-.05h-.4a2.78,2.78,0,0,0-2.72,1.32,5.07,5.07,0,0,0-.39,2.28v6.13h-3.37V98.61h3.2v2.23a6.78,6.78,0,0,1,1.35-1.75,3.66,3.66,0,0,1,2.45-.79Z"/><path class="cls-2" d="M531.43,94.09h3.8l6.89,12.09V94.09h3.37v17.34h-3.62l-7.06-12.3v12.3h-3.38Z"/><path class="cls-2" d="M559.32,109.86a7.05,7.05,0,0,1-9.86,0,7.93,7.93,0,0,1,0-9.63,7,7,0,0,1,9.86,0,8,8,0,0,1,0,9.63ZM556.63,108a6,6,0,0,0,0-5.94,3,3,0,0,0-4.52,0,6,6,0,0,0,0,5.94,3,3,0,0,0,4.52,0Z"/><path class="cls-2" d="M562,101.11V98.72h1.79V95.15h3.32v3.57h2.08v2.39h-2.08v6.78c0,.52.06.85.2,1a2.16,2.16,0,0,0,1.22.2h.32l.34,0v2.51l-1.59.06c-1.58,0-2.67-.22-3.25-.83a2.46,2.46,0,0,1-.56-1.77v-7.9Z"/><path class="cls-2" d="M574.81,97.08h-3.4V94h3.4Zm-3.4,1.53h3.4v12.82h-3.4Z"/><path class="cls-2" d="M588.75,109.86a7.05,7.05,0,0,1-9.86,0,8,8,0,0,1,0-9.63,7,7,0,0,1,9.86,0,8,8,0,0,1,0,9.63ZM586.07,108a6,6,0,0,0,0-5.94,3,3,0,0,0-4.53,0,6,6,0,0,0,0,5.94,3,3,0,0,0,4.53,0Z"/><path class="cls-2" d="M603.11,99.34a4.26,4.26,0,0,1,1.26,3.46v8.63h-3.43v-7.8a3.56,3.56,0,0,0-.27-1.55,1.89,1.89,0,0,0-1.87-1,2.3,2.3,0,0,0-2.32,1.45,5,5,0,0,0-.33,1.95v6.94H592.8V98.63H596v1.87a5.7,5.7,0,0,1,1.22-1.42,4.23,4.23,0,0,1,2.62-.78A4.91,4.91,0,0,1,603.11,99.34Z"/></g></g></svg>